<svg id="wave" style="transform:rotate(0deg); transition: 0.3s" viewBox="0 0 1440 140" version="1.1" xmlns="http://www.w3.org/2000/svg"><defs><linearGradient id="sw-gradient-0" x1="0" x2="0" y1="1" y2="0"><stop stop-color="rgba(255, 255, 255, 1)" offset="0%"></stop><stop stop-color="rgba(255, 255, 255, 1)" offset="100%"></stop></linearGradient></defs><path style="transform:translate(0, 0px); opacity:1" fill="url(#sw-gradient-0)" d="M0,70L15,63C30,56,60,42,90,42C120,42,150,56,180,56C210,56,240,42,270,46.7C300,51,330,75,360,81.7C390,89,420,79,450,79.3C480,79,510,89,540,84C570,79,600,61,630,49C660,37,690,33,720,39.7C750,47,780,65,810,63C840,61,870,37,900,32.7C930,28,960,42,990,49C1020,56,1050,56,1080,60.7C1110,65,1140,75,1170,74.7C1200,75,1230,65,1260,51.3C1290,37,1320,19,1350,30.3C1380,42,1410,84,1440,95.7C1470,107,1500,89,1530,77C1560,65,1590,61,1620,65.3C1650,70,1680,84,1710,74.7C1740,65,1770,33,1800,35C1830,37,1860,75,1890,95.7C1920,117,1950,121,1980,105C2010,89,2040,51,2070,46.7C2100,42,2130,70,2145,84L2160,98L2160,140L2145,140C2130,140,2100,140,2070,140C2040,140,2010,140,1980,140C1950,140,1920,140,1890,140C1860,140,1830,140,1800,140C1770,140,1740,140,1710,140C1680,140,1650,140,1620,140C1590,140,1560,140,1530,140C1500,140,1470,140,1440,140C1410,140,1380,140,1350,140C1320,140,1290,140,1260,140C1230,140,1200,140,1170,140C1140,140,1110,140,1080,140C1050,140,1020,140,990,140C960,140,930,140,900,140C870,140,840,140,810,140C780,140,750,140,720,140C690,140,660,140,630,140C600,140,570,140,540,140C510,140,480,140,450,140C420,140,390,140,360,140C330,140,300,140,270,140C240,140,210,140,180,140C150,140,120,140,90,140C60,140,30,140,15,140L0,140Z"></path></svg>
